<svg width="20" height="20" viewBox="0 0 20 20" fill="none" xmlns="http://www.w3.org/2000/svg">
<g clip-path="url(#clip0_2_652)">
<rect width="20" height="20" fill="#151414"/>
<path d="M10.009 4.18311C6.81071 4.18311 4.20874 6.78508 4.20874 9.98333C4.20874 11.0977 4.52546 12.1799 5.12459 13.1128L5.26858 13.3371L4.70443 15.3408L6.77749 14.8071L6.9913 14.9377C7.89771 15.4911 8.94122 15.7835 10.009 15.7835C13.2072 15.7835 15.8091 13.1816 15.8091 9.98333C15.8091 6.78508 13.2072 4.18311 10.009 4.18311ZM13.5657 11.766L13.4933 12.104C13.4117 12.4854 13.1852 12.8227 12.8566 13.0329C12.4418 13.2983 11.9041 13.4286 11.2206 13.2353C9.09948 12.6355 7.89991 11.2312 7.25628 10.3535C6.61261 9.47575 6.36396 8.59804 6.52484 7.88125C6.63276 7.40053 6.9841 7.03167 7.20384 6.84081C7.31149 6.74734 7.45113 6.69977 7.59346 6.70753L8.04671 6.73224C8.13597 6.73711 8.2147 6.79223 8.24985 6.87443L8.91011 8.41925C8.94539 8.50179 8.93052 8.5972 8.87184 8.66509L8.29712 9.32996C8.25051 9.38385 8.24239 9.46065 8.27522 9.52389C9.03216 10.9819 10.4117 11.5597 10.8235 11.7044C10.8936 11.7291 10.9714 11.7058 11.0169 11.6469L11.6182 10.8673C11.6851 10.7806 11.803 10.7516 11.9025 10.7974L13.4343 11.5035C13.5342 11.5496 13.5887 11.6586 13.5657 11.766Z" fill="white"/>
<path d="M0 0V20H20V0H0ZM10.009 16.9686C8.80888 16.9686 7.63371 16.6614 6.59411 16.078L3.0059 17.0017L3.98555 13.5223C3.35558 12.452 3.02389 11.2343 3.02389 9.98343C3.02389 6.13182 6.1574 2.9983 10.009 2.9983C13.8606 2.9983 16.9941 6.13182 16.9941 9.98343C16.9941 13.835 13.8606 16.9686 10.009 16.9686Z" fill="white"/>
</g>
<defs>
<clipPath id="clip0_2_652">
<rect width="20" height="20" fill="white"/>
</clipPath>
</defs>
</svg>
