<svg width="20" height="20" viewBox="0 0 20 20" fill="none" xmlns="http://www.w3.org/2000/svg">
<g clip-path="url(#clip0_2_648)">
<rect width="20" height="20" fill="#151414"/>
<path d="M0 0V20H20V0H0ZM14.5884 11.1448L16.3253 13.1406C16.5474 13.3958 16.3661 13.7938 16.0279 13.7938H14.0678C13.758 13.7938 13.4597 13.6765 13.2329 13.4656L12.6524 12.9259C11.9973 12.3527 11.7189 12.1562 11.4569 12.1562C11.1949 12.1562 11.1294 12.3526 11.1294 12.8603C11.1294 13.3679 11.0312 13.7938 9.52457 13.7938C8.01798 13.7938 6.83892 12.6639 5.51249 10.9117C4.18607 9.15947 3.59653 7.27623 3.59653 7.27623C3.52335 7.04051 3.69956 6.80134 3.9464 6.80134H5.51496C5.81332 6.80134 6.08505 6.97375 6.21016 7.24458C6.33856 7.52257 6.55944 7.95155 6.93724 8.58625C7.47337 9.48691 7.9884 9.89265 8.28015 10.0654C8.38878 10.1298 8.52576 10.0502 8.52576 9.92397V7.76364C8.52576 7.48095 8.42364 7.20782 8.23812 6.99452L8.01699 6.74026C7.9598 6.6745 8.00653 6.57205 8.09364 6.57205H10.5727C10.9525 6.57205 11.2605 6.87996 11.2605 7.25982V9.77216C11.2605 9.93402 11.4705 9.99732 11.56 9.86249L13.3442 7.17345C13.4849 6.96147 13.7224 6.83397 13.9768 6.83397H16.0712C16.3575 6.83397 16.5315 7.14922 16.3792 7.39153L14.5258 10.3372C14.3664 10.5908 14.3917 10.9188 14.5884 11.1448Z" fill="white"/>
</g>
<defs>
<clipPath id="clip0_2_648">
<rect width="20" height="20" fill="white"/>
</clipPath>
</defs>
</svg>
