<svg width="127" height="40" viewBox="0 0 127 40" fill="none" xmlns="http://www.w3.org/2000/svg">
<path d="M50.31 9L49.89 12.06H45.12V29.73H41.25V12.06H36.27V9H50.31Z" fill="#151414"/>
<path d="M62.8134 21.42C62.8134 21.6 62.7834 22.11 62.7234 22.95H53.7534C53.8734 24.55 54.2134 25.68 54.7734 26.34C55.3334 27 56.1134 27.33 57.1134 27.33C57.7534 27.33 58.3534 27.22 58.9134 27C59.4734 26.78 60.0734 26.44 60.7134 25.98L62.2734 28.11C60.6934 29.49 58.8834 30.18 56.8434 30.18C54.6234 30.18 52.9134 29.45 51.7134 27.99C50.5134 26.53 49.9134 24.5 49.9134 21.9C49.9134 19.34 50.4834 17.29 51.6234 15.75C52.7834 14.19 54.3934 13.41 56.4534 13.41C58.4534 13.41 60.0134 14.1 61.1334 15.48C62.2534 16.86 62.8134 18.84 62.8134 21.42ZM59.1234 20.34C59.1234 18.9 58.9134 17.83 58.4934 17.13C58.0734 16.41 57.4034 16.05 56.4834 16.05C55.6434 16.05 54.9934 16.4 54.5334 17.1C54.0934 17.78 53.8334 18.92 53.7534 20.52H59.1234V20.34Z" fill="#151414"/>
<path d="M73.1327 13.44C73.5527 13.44 74.0227 13.51 74.5427 13.65L73.9127 17.28C73.4927 17.16 73.0727 17.1 72.6527 17.1C71.8127 17.1 71.1427 17.43 70.6427 18.09C70.1627 18.75 69.7927 19.75 69.5327 21.09V29.73H65.7827V13.86H69.0527L69.3527 16.8C69.7327 15.7 70.2427 14.87 70.8827 14.31C71.5227 13.73 72.2727 13.44 73.1327 13.44Z" fill="#151414"/>
<path d="M83.914 13.44C84.334 13.44 84.804 13.51 85.324 13.65L84.694 17.28C84.274 17.16 83.854 17.1 83.434 17.1C82.594 17.1 81.924 17.43 81.424 18.09C80.944 18.75 80.574 19.75 80.314 21.09V29.73H76.564V13.86H79.834L80.134 16.8C80.514 15.7 81.024 14.87 81.664 14.31C82.304 13.73 83.054 13.44 83.914 13.44Z" fill="#151414"/>
<path d="M97.297 25.74C97.297 26.3 97.377 26.72 97.537 27C97.697 27.26 97.957 27.47 98.317 27.63L97.537 30.12C96.677 30.02 95.977 29.8 95.437 29.46C94.917 29.12 94.527 28.59 94.267 27.87C93.287 29.41 91.867 30.18 90.007 30.18C88.587 30.18 87.457 29.73 86.617 28.83C85.777 27.93 85.357 26.75 85.357 25.29C85.357 23.57 85.927 22.26 87.067 21.36C88.207 20.44 89.857 19.98 92.017 19.98H93.607V18.99C93.607 17.99 93.407 17.28 93.007 16.86C92.607 16.44 91.957 16.23 91.057 16.23C90.017 16.23 88.737 16.5 87.217 17.04L86.347 14.55C88.167 13.79 89.937 13.41 91.657 13.41C95.417 13.41 97.297 15.2 97.297 18.78V25.74ZM91.027 27.45C92.127 27.45 92.987 26.8 93.607 25.5V22.2H92.407C90.207 22.2 89.107 23.14 89.107 25.02C89.107 25.82 89.277 26.43 89.617 26.85C89.957 27.25 90.427 27.45 91.027 27.45Z" fill="#151414"/>
<path d="M107.291 13.41C108.231 13.41 109.081 13.56 109.841 13.86C110.601 14.16 111.321 14.62 112.001 15.24L110.351 17.43C109.451 16.71 108.511 16.35 107.531 16.35C106.511 16.35 105.731 16.79 105.191 17.67C104.671 18.53 104.411 19.93 104.411 21.87C104.411 23.79 104.671 25.15 105.191 25.95C105.731 26.75 106.511 27.15 107.531 27.15C108.031 27.15 108.491 27.07 108.911 26.91C109.331 26.73 109.801 26.46 110.321 26.1L112.001 28.35C110.621 29.57 109.071 30.18 107.351 30.18C105.191 30.18 103.501 29.47 102.281 28.05C101.061 26.61 100.451 24.57 100.451 21.93C100.451 20.21 100.731 18.71 101.291 17.43C101.851 16.13 102.641 15.14 103.661 14.46C104.701 13.76 105.911 13.41 107.291 13.41Z" fill="#151414"/>
<path d="M125.743 21.42C125.743 21.6 125.713 22.11 125.653 22.95H116.683C116.803 24.55 117.143 25.68 117.703 26.34C118.263 27 119.043 27.33 120.043 27.33C120.683 27.33 121.283 27.22 121.843 27C122.403 26.78 123.003 26.44 123.643 25.98L125.203 28.11C123.623 29.49 121.813 30.18 119.773 30.18C117.553 30.18 115.843 29.45 114.643 27.99C113.443 26.53 112.843 24.5 112.843 21.9C112.843 19.34 113.413 17.29 114.553 15.75C115.713 14.19 117.323 13.41 119.383 13.41C121.383 13.41 122.943 14.1 124.063 15.48C125.183 16.86 125.743 18.84 125.743 21.42ZM122.053 20.34C122.053 18.9 121.843 17.83 121.423 17.13C121.003 16.41 120.333 16.05 119.413 16.05C118.573 16.05 117.923 16.4 117.463 17.1C117.023 17.78 116.763 18.92 116.683 20.52H122.053V20.34Z" fill="#151414"/>
<path fill-rule="evenodd" clip-rule="evenodd" d="M25.1482 20.7021H15.8287V30.1492L10.85 35V15.724H30.126L25.1482 20.7021Z" fill="#151414"/>
<path fill-rule="evenodd" clip-rule="evenodd" d="M30.5098 14.9572H9.95703V30.0209H5.1062V14.9572H0C3.44679 11.6382 6.6383 8.31889 9.95719 5V9.97867H25.531L30.5097 14.9573L30.5098 14.9572Z" fill="#151414"/>
</svg>
